<svg version="1.1" viewBox="0.0 0.0 158.0 114.0" fill="none" stroke="none" stroke-linecap="square" stroke-miterlimit="10" xmlns:xlink="http://www.w3.org/1999/xlink" xmlns="http://www.w3.org/2000/svg"><clipPath id="p.0"><path d="m0 0l158.0 0l0 114.0l-158.0 0l0 -114.0z" clip-rule="nonzero"/></clipPath><g clip-path="url(#p.0)"><path fill="#000000" fill-opacity="0.0" d="m0 0l158.0 0l0 114.0l-158.0 0z" fill-rule="evenodd"/><path fill="#434343" d="m47.59055 44.27988l0 0c0 -0.8764572 0.71051025 -1.5869675 1.5869675 -1.5869675l59.566227 0c0.4208908 0 0.8245392 0.16719818 1.1221542 0.46481323c0.29761505 0.29761124 0.46481323 0.7012634 0.46481323 1.1221542l0 34.1489c0 0.8764572 -0.71051025 1.5869675 -1.5869675 1.5869675l-59.566227 0c-0.8764572 0 -1.5869675 -0.71051025 -1.5869675 -1.5869675z" fill-rule="evenodd"/><path fill="#434343" d="m54.322834 34.453243l0 0c0 -0.26626205 0.21585083 -0.48211288 0.4821167 -0.48211288l18.783802 0c0.12786102 0 0.25048828 0.050792694 0.34090424 0.14120865c0.090415955 0.09041214 0.14121246 0.2130394 0.14121246 0.34090424l0 10.3743515c0 0.26626587 -0.21585083 0.4821167 -0.4821167 0.4821167l-18.783802 0c-0.26626587 0 -0.4821167 -0.21585083 -0.4821167 -0.4821167z" fill-rule="evenodd"/><path fill="#434343" d="m83.94226 34.453243l0 0c0 -0.26626205 0.21585083 -0.48211288 0.4821167 -0.48211288l18.783798 0c0.12786102 0 0.25048828 0.050792694 0.34090424 0.14120865c0.090415955 0.09041214 0.14121246 0.2130394 0.14121246 0.34090424l0 10.3743515c0 0.26626587 -0.21585083 0.4821167 -0.4821167 0.4821167l-18.783798 0c-0.26626587 0 -0.4821167 -0.21585083 -0.4821167 -0.4821167z" fill-rule="evenodd"/></g></svg>